<?xml version="1.0" encoding="utf-8"?>
<!-- Generator: Adobe Illustrator 24.2.3, SVG Export Plug-In . SVG Version: 6.00 Build 0)  -->
<svg version="1.1" xmlns="http://www.w3.org/2000/svg" xmlns:xlink="http://www.w3.org/1999/xlink" x="0px" y="0px"
	 viewBox="0 0 338.45 338.45" style="enable-background:new 0 0 338.45 338.45;" xml:space="preserve">
<style type="text/css">
	.st0{display:none;fill:#009FE3;}
	.st1{display:none;}
	.st2{display:inline;}
	.st3{fill:#009FE3;}
	.st4{fill:#3E3F3F;}
	.st5{fill:#EBEBEB;}
	.st6{fill:#FCBB3C;}
	.st7{fill:#3F3F3F;}
	.st8{fill:#FDBC38;}
	.st9{fill:#E9E9E9;}
	.st10{fill:none;stroke:#009FE3;stroke-width:4.5;stroke-linecap:round;stroke-linejoin:round;stroke-miterlimit:10;}
	.st11{fill:#DADADA;}
	.st12{fill:#1D1D1B;stroke:#1D1D1B;stroke-width:0.75;stroke-linecap:round;stroke-linejoin:round;stroke-miterlimit:10;}
	.st13{fill:#EDEDED;}
	.st14{fill:#C6C6C6;}
	.st15{fill:none;}
	.st16{fill:#DE393F;}
	.st17{fill:#FFC906;}
	.st18{fill:#F1AD31;}
	.st19{opacity:0.1;}
</style>
<g id="Brille">
</g>
<g id="Welt">
</g>
<g id="Brille_Vektor">
	<polygon class="st0" points="-291.48,29.41 -370.97,159.86 -387.79,158.85 -307.69,28.28 	"/>
	<path class="st0" d="M-233.25,40.84l-70.46,119.02l-55.95-0.41l77.28-129.39c0,0,21.46,2.02,29.08,3.89
		C-245.68,35.82-233.25,40.84-233.25,40.84z"/>
</g>
<g id="Schläger">
	<g id="XMLID_1_" class="st1">
		<g id="XMLID_148_" class="st2">
			<g id="XMLID_156_">
				<g id="XMLID_306_">
					<g id="XMLID_311_">
						<ellipse id="XMLID_312_" class="st3" cx="159.12" cy="13.97" rx="76.95" ry="75.73"/>
					</g>
					<g id="XMLID_307_">
						<path id="XMLID_308_" class="st4" d="M236.45,15.33c-0.76,41.97-36.07,75.5-78.72,74.75c-42.64-0.75-76.72-35.5-75.96-77.47
							s36.07-75.5,78.72-74.75C203.14-61.39,237.22-26.64,236.45,15.33z M82.57,12.63c-0.75,41.54,32.97,75.93,75.18,76.67
							c42.21,0.74,77.16-32.45,77.91-73.98c0.75-41.54-32.97-75.93-75.18-76.67C118.28-62.1,83.32-28.91,82.57,12.63z"/>
					</g>
				</g>
				<g id="XMLID_185_">
					<g id="XMLID_298_">
						<g id="XMLID_303_">
							<path id="XMLID_304_" class="st5" d="M161.46-61.72c-1.16,2.11-2.75,3.75-4.96,4.34c-5.1,1.37-9.21-0.52-11.65-3.07
								c-18.03,3.35-33.88,12.9-45.13,26.36c3.71-0.6,7.91-0.33,11.79,2.11c0,0-6.93,0.66-6.63,5.91c0.3,5.26,6.32,0.11,9.21,4.25
								c2.89,4.13,7.93-1.22,4.42-4.2c-3.5-2.98,0.53-7.19,3.65-5.19c3.13,2,3.65,5.9,1.8,9.95c-1.85,4.05,5.08,3.2,6.79,6.93
								s-0.13,7.39-0.13,7.39L136-11c1.39-1.05,3.35-0.9,4.56,0.35l1.34,1.38c0,0-3.25,0.82-3.49,3.24
								c-0.24,2.43,5.41,1.55,5.54,4.86c0.14,3.31,5.07,3.78,5.55-0.68c0.48-4.46,2.96-5,2.96-5s-0.71-4.49-5.25-4.56
								c-4.54-0.08-3.17-4.72-3.17-4.72s-3.84-0.75-2.49-4.62s-6.17-8.18,3.17-11.42c9.35-3.24,5.96-7.28,5.96-7.28l-4.52-1.25
								c0,0,7.05-1.92,7.03-6.2c-0.02-4.28,7.73-6.77,9.38,0.16s-2.43,9-2.43,9s5.14-0.3,5.08,2.62c-0.05,2.92-4.23,4.69-4.23,4.69
								s0.49,5.75-2.29,6.28c-2.78,0.53-2.42-2.57-2.42-2.57s-4.93-0.28-3.71,3.14c1.22,3.42-0.19,10.3-0.19,10.3
								s4.6,2.51,3.83,6.68c-0.77,4.17-2.22,8.61,3.16,11.24c5.38,2.62,5,7.19,5,7.19l5.39,5.96c0,0-1.78,3.47,1.1,4.69
								c2.88,1.22,3.48-3.18,10.94-0.46c7.46,2.72,9.85,1.73,10.93,0.32c0,0,6.02,1.92,8.66-5.42c0,0,5.21-3.93,2.04-10.72
								c0,0,3.46-3.83,1.25-8.27c-2.21-4.45,0.64-8.67,3.14-8.76c0,0-0.97-4.55,2.71-4.36s2.82,4.2,2.82,4.2s5.24-5.52,11.23-1.76
								c0,0-0.52,7.01,3.57,6.56c1.82-0.2,3.9,0.63,5.66,1.62C225.61-36.65,196.57-60.71,161.46-61.72z"/>
						</g>
						<g id="XMLID_299_">
							<path id="XMLID_300_" class="st4" d="M234.43-3.8l-0.8-0.45c-2.14-1.2-3.97-1.73-5.42-1.57c-0.97,0.11-1.78-0.15-2.43-0.77
								c-1.65-1.57-1.63-5.02-1.59-5.97c-5.56-3.3-10.33,1.61-10.53,1.82l-0.96,1.01l0.29-1.36c0-0.02,0.36-1.77-0.48-2.85
								c-0.42-0.54-1.08-0.83-1.97-0.88c-0.81-0.04-1.4,0.16-1.8,0.62c-0.95,1.09-0.51,3.26-0.5,3.28l0.1,0.45l-0.47,0.02
								c-0.95,0.03-1.97,0.77-2.68,1.93c-1.12,1.83-1.16,4.18-0.12,6.27c2.01,4.05-0.47,7.63-1.15,8.5
								c2.82,6.35-1.46,10.3-2.16,10.9c-2.43,6.61-7.61,5.9-8.85,5.63c-1.71,1.93-5.19,1.8-11.21-0.4c-4.38-1.6-6.25-0.68-7.75,0.05
								c-0.99,0.48-1.92,0.94-3.21,0.39c-0.84-0.36-1.41-0.92-1.69-1.67c-0.47-1.28,0.03-2.73,0.28-3.3l-5.33-5.9l0.01-0.17
								c0.01-0.17,0.28-4.34-4.78-6.81c-5.17-2.52-4.33-6.79-3.59-10.55c0.07-0.37,0.15-0.74,0.21-1.1c0.7-3.85-3.59-6.25-3.63-6.27
								l-0.25-0.14l0.06-0.28c0.01-0.07,1.37-6.81,0.2-10.1c-0.35-0.97-0.28-1.78,0.2-2.41c1.06-1.39,3.79-1.25,3.91-1.25l0.41,0.02
								l-0.04,0.41c0,0.01-0.13,1.3,0.52,1.9c0.32,0.29,0.8,0.37,1.43,0.25c1.99-0.38,2.09-4.37,1.97-5.87l-0.02-0.28l0.26-0.11
								c0.04-0.02,3.95-1.71,4-4.34c0.01-0.5-0.16-0.9-0.51-1.23c-1.22-1.15-4.13-1-4.16-1l-1.87,0.11l1.66-0.84
								c0.15-0.08,3.78-2.04,2.22-8.57c-0.66-2.78-2.46-4.27-4.8-4c-1.88,0.22-3.84,1.71-3.81,3.74c0,0.03,0,0.07,0,0.1
								c-0.06,3.35-4.01,5.28-6.09,6.06l3.41,0.94l0.08,0.09c0.04,0.05,1.03,1.26,0.56,2.93c-0.55,1.95-2.8,3.62-6.7,4.96
								c-2.39,0.83-3.79,1.76-4.28,2.87c-0.54,1.2,0.03,2.52,0.63,3.92c0.61,1.43,1.25,2.91,0.73,4.39
								c-0.37,1.07-0.36,1.97,0.06,2.67c0.66,1.13,2.12,1.43,2.13,1.43l0.42,0.08l-0.12,0.41c-0.01,0.02-0.57,2.01,0.35,3.23
								c0.48,0.64,1.31,0.97,2.45,0.99c4.82,0.08,5.63,4.85,5.64,4.89l0.06,0.36l-0.36,0.08c-0.09,0.02-2.21,0.57-2.65,4.66
								c-0.27,2.55-1.92,3.65-3.44,3.6c-1.38-0.04-2.82-1.07-2.89-2.95c-0.06-1.5-1.45-1.99-2.92-2.51
								c-1.36-0.48-2.76-0.97-2.62-2.41c0.2-2,2.14-2.99,3.16-3.38l-0.91-0.94c-1.07-1.1-2.8-1.23-4.03-0.3l-6.72,5.07l0.75-1.49
								c0.02-0.03,1.74-3.55,0.13-7.05c-0.69-1.5-2.32-2.2-3.9-2.87c-1.37-0.59-2.67-1.14-3.1-2.22c-0.24-0.61-0.17-1.32,0.21-2.15
								c1.83-4.01,1.2-7.64-1.65-9.46c-1.44-0.92-3.06-0.32-3.85,0.72c-0.73,0.96-0.94,2.47,0.67,3.85
								c1.15,0.97,1.58,2.31,1.19,3.66c-0.39,1.37-1.58,2.48-2.89,2.69c-0.72,0.12-2.12,0.06-3.31-1.64
								c-1.25-1.78-3.12-1.67-4.94-1.55c-1.33,0.08-2.59,0.16-3.44-0.58c-0.55-0.48-0.84-1.23-0.91-2.31
								c-0.25-4.24,3.89-5.68,5.91-6.13c-3.08-1.65-6.64-2.17-10.61-1.52l-1.04,0.17l0.67-0.8c11.52-13.79,27.63-23.2,45.36-26.49
								l0.21-0.04l0.15,0.15c1.37,1.43,5.21,4.58,11.26,2.96c1.9-0.51,3.49-1.91,4.72-4.15l0.12-0.21l0.24,0.01
								c34.41,0.99,64.32,24.6,72.73,57.42L234.43-3.8z M224.97-12.28c-0.02,1.1,0.06,3.91,1.36,5.14c0.48,0.45,1.06,0.63,1.79,0.55
								c1.43-0.16,3.14,0.26,5.1,1.24c-8.6-31.96-37.86-54.9-71.52-55.97c-1.32,2.32-3.03,3.77-5.09,4.32
								c-4.41,1.19-8.84,0.06-11.89-3.02c-17.13,3.23-32.72,12.23-44.03,25.41c4.14-0.48,7.85,0.3,11.04,2.31l0.96,0.61l-1.14,0.11
								c-0.27,0.03-6.54,0.69-6.27,5.5c0.05,0.86,0.26,1.44,0.64,1.77c0.6,0.53,1.65,0.46,2.86,0.39c1.84-0.12,4.14-0.26,5.64,1.89
								c0.71,1.01,1.58,1.47,2.53,1.31c1.02-0.17,1.95-1.04,2.26-2.13c0.18-0.62,0.29-1.81-0.95-2.86c-2.03-1.72-1.69-3.72-0.79-4.9
								c1.01-1.32,3.07-2.08,4.91-0.91c3.2,2.05,3.95,6.05,1.94,10.43c-0.29,0.63-0.35,1.14-0.19,1.55
								c0.31,0.78,1.46,1.27,2.68,1.79c1.63,0.7,3.49,1.49,4.3,3.26c1.15,2.52,0.77,4.98,0.35,6.42l4.29-3.24
								c1.55-1.17,3.73-1,5.08,0.38l1.81,1.86L142-8.9c-0.03,0.01-2.98,0.78-3.19,2.91c-0.07,0.79,0.75,1.12,2.1,1.6
								c1.5,0.53,3.36,1.18,3.45,3.21c0.06,1.47,1.15,2.17,2.13,2.2c1.07,0.03,2.39-0.71,2.63-2.91c0.39-3.69,2.12-4.87,2.89-5.21
								c-0.25-0.97-1.28-3.87-4.8-3.93c-1.41-0.02-2.44-0.47-3.08-1.31c-0.88-1.18-0.7-2.79-0.56-3.52
								c-0.58-0.19-1.66-0.66-2.27-1.7c-0.53-0.91-0.57-2.02-0.12-3.32c0.42-1.2-0.13-2.48-0.71-3.83c-0.64-1.49-1.3-3.03-0.62-4.54
								c0.59-1.31,2.14-2.38,4.74-3.29c4.53-1.57,5.87-3.28,6.2-4.44c0.3-1.06-0.16-1.88-0.34-2.14l-5.76-1.59l1.37-0.37
								c0.07-0.02,6.67-1.86,6.74-5.74c0-0.06,0-0.12,0-0.17c0.04-2.45,2.31-4.17,4.5-4.43c2.15-0.25,4.76,0.83,5.66,4.6
								c1.2,5.01-0.49,7.59-1.67,8.71c1.09,0.07,2.67,0.33,3.59,1.2c0.51,0.48,0.76,1.09,0.75,1.8c-0.05,2.73-3.27,4.47-4.22,4.92
								c0.06,1.2,0.12,5.89-2.62,6.42c-0.89,0.17-1.61,0.02-2.12-0.44c-0.66-0.6-0.78-1.57-0.79-2.13c-0.84,0.02-2.27,0.2-2.84,0.94
								c-0.32,0.41-0.35,0.96-0.09,1.69c1.12,3.13,0.13,8.9-0.12,10.24c0.99,0.61,4.49,3.08,3.78,6.94
								c-0.07,0.37-0.14,0.74-0.21,1.11c-0.76,3.83-1.47,7.45,3.16,9.71c4.95,2.41,5.23,6.5,5.22,7.39l5.47,6.04l-0.12,0.24
								c-0.01,0.02-0.83,1.65-0.35,2.93c0.21,0.55,0.62,0.95,1.26,1.22c0.96,0.4,1.59,0.09,2.54-0.38c1.55-0.76,3.67-1.8,8.38-0.09
								c7.58,2.77,9.61,1.58,10.48,0.45l0.17-0.22l0.27,0.08c0.23,0.07,5.7,1.7,8.17-5.18l0.04-0.11l0.09-0.07
								c0.2-0.15,4.92-3.83,1.92-10.25l-0.11-0.23l0.17-0.19c0.13-0.15,3.25-3.69,1.19-7.85c-1.16-2.34-1.1-4.96,0.16-7.02
								c0.74-1.21,1.82-2.04,2.89-2.25c-0.1-0.78-0.18-2.47,0.74-3.52c0.56-0.65,1.39-0.94,2.45-0.89c1.13,0.06,1.99,0.46,2.56,1.18
								c0.59,0.76,0.73,1.73,0.73,2.45c1.73-1.39,6.12-4.17,10.96-1.14l0.2,0.13l-0.02,0.23C224.99-12.73,224.97-12.56,224.97-12.28
								z"/>
						</g>
					</g>
					<g id="XMLID_291_">
						<g id="XMLID_296_">
							<path id="XMLID_297_" class="st5" d="M196.68,59.62c0.78,8.05-11.12,10.44-11.12,10.44s-0.63,5.56-6.94,4.8
								c-6.31-0.76-10.22,4.23-10.22,4.23s-10.66-0.45-12.96,2.75c-2.3,3.2-7.42,2.85-7.42,2.85s-5-1.12-1.09,1.41
								c1.63,1.06,2.08,2.09,2.07,2.94c2.9,0.38,5.85,0.6,8.84,0.66c15.94,0.28,30.83-4.23,43.26-12.18
								c-0.79-1.95,0.52-4.48,4.32-6.2c7.7-3.49,4.75-7.57,4.75-7.57s-5.79-0.36-4.27-4.09c1.52-3.73-0.59-4.03-0.59-4.03
								C203.12,60.51,196.68,59.62,196.68,59.62z"/>
						</g>
						<g id="XMLID_292_">
							<path id="XMLID_293_" class="st4" d="M211.13,65.73c-0.01,0.31-0.05,0.64-0.14,0.98c-0.51,1.89-2.32,3.55-5.39,4.94
								c-3.75,1.7-4.77,4.09-4.12,5.71l0.12,0.3l-0.27,0.17c-12.95,8.28-27.98,12.52-43.48,12.24c-2.93-0.05-5.92-0.27-8.89-0.66
								l-0.35-0.05l0.01-0.35c0,0,0,0,0,0c0.02-0.9-0.62-1.78-1.89-2.6c-1.38-0.9-1.84-1.43-1.62-1.93
								c0.08-0.19,0.34-0.79,3.02-0.18l0,0c0-0.01,4.87,0.28,7.01-2.7c2.24-3.13,11.57-2.97,13.1-2.93
								c0.75-0.88,4.56-4.93,10.45-4.22c1.87,0.23,3.39-0.11,4.53-0.99c1.7-1.32,1.97-3.45,1.97-3.47l0.03-0.28l0.28-0.06
								c0.11-0.02,11.55-2.4,10.81-10.02l-0.05-0.49l0.5,0.07c0.06,0.01,6.17,0.79,8.22-3.77l0.12-0.27l0.3,0.04
								c0.27,0.04,0.83,0.26,1.17,0.84c0.49,0.83,0.4,2.08-0.27,3.72c-0.32,0.77-0.3,1.4,0.04,1.93c0.76,1.19,3.07,1.58,3.89,1.63
								l0.19,0.01l0.11,0.15C210.53,63.56,211.15,64.44,211.13,65.73z M200.5,76.31c0.03-1.69,1.26-3.76,4.77-5.36
								c2.8-1.27,4.51-2.8,4.96-4.42c0.32-1.17-0.08-2.08-0.28-2.42c-0.76-0.08-3.32-0.45-4.3-1.97c-0.48-0.74-0.51-1.63-0.1-2.64
								c0.71-1.73,0.57-2.6,0.33-3.03c-0.1-0.18-0.23-0.3-0.35-0.37c-2.04,3.97-6.87,4.02-8.41,3.93c0.27,7.29-9.44,9.91-11.2,10.33
								c-0.13,0.69-0.62,2.48-2.21,3.72c-1.31,1.02-3.03,1.41-5.12,1.15c-6-0.72-9.82,4.03-9.86,4.08l-0.13,0.16l-0.2-0.01
								c-0.1,0-10.47-0.4-12.62,2.59c-2.4,3.34-7.55,3.03-7.77,3.01c-0.84-0.18-1.68-0.28-2.06-0.24c0.14,0.16,0.46,0.45,1.22,0.94
								c1.36,0.88,2.11,1.86,2.23,2.92c2.83,0.36,5.68,0.56,8.47,0.61c15.24,0.27,30.03-3.87,42.78-11.95
								C200.54,77.03,200.49,76.68,200.5,76.31z"/>
						</g>
					</g>
					<g id="XMLID_284_">
						<g id="XMLID_289_">
							<path id="XMLID_290_" class="st5" d="M82.17,13.57c-0.15,26.04,13.11,49.14,33.47,62.89c-0.22-0.26-3.43-4.26,5.32-2.1
								c0,0-1.26-4.17-5.94-7.36c-4.68-3.19-6.72-6.86-3.93-7.85c0,0-4.44-1.89-2.41-5.23l2.77,0.05c0,0,2.16-3.07-1.21-5.73
								c0,0-2.02,2.69-4.37,1.09s-2.64-7.05,1.45-7.23c4.09-0.19,4.17,2.67,4.17,2.67s3.59-1.62,0.64-6.34
								c-2.94-4.72-7.81-1.17-7.81-1.17s-5.35,0.55-7.22-5.18l-0.81,1.95c-0.28,0.67-1.23,0.7-1.55,0.04
								c-0.54-1.12-1.4-2.26-2.65-2.07c-2.38,0.35-0.99,3.87,2.11,7.3c3.1,3.43,0.53,7.14,0.53,7.14s-0.29-3.09-4.5-5.91
								c-4.21-2.82-4.54-11.36,0.19-10.24l-1.34-3.35c-0.2-0.51,0.42-0.94,0.84-0.58l3.42,2.95c0,0,3.32-1.5-1.73-6.25
								c-5.05-4.76-4.91-7.73-4.27-9.02c0,0-2.02-0.04-2.49,4.1C84.6,20.2,83.35,17.13,82.17,13.57z"/>
						</g>
						<g id="XMLID_285_">
							<path id="XMLID_286_" class="st4" d="M121.54,74.91l-0.67-0.17c-4.39-1.08-5.32-0.5-5.51-0.2c-0.26,0.4,0.21,1.22,0.59,1.68
								l1.76,2.11l-2.29-1.54C94.21,62.46,81.64,38.83,81.78,13.57l0.01-2.4l0.76,2.28c1.04,3.13,1.61,4.29,1.88,4.72
								c0-0.03,0.01-0.07,0.01-0.11c0.5-4.44,2.79-4.45,2.89-4.45l0.62,0.01l-0.27,0.55c-0.37,0.74-1.15,3.55,4.19,8.57
								c2.16,2.03,3.13,3.77,2.89,5.19c-0.21,1.21-1.22,1.68-1.27,1.7l-0.23,0.1l-3.61-3.12c-0.07-0.06-0.13-0.04-0.17-0.01
								c-0.04,0.03-0.08,0.07-0.05,0.16l1.62,4.05l-0.74-0.18c-1.22-0.29-2.09,0.11-2.58,1.2c-1.02,2.26,0.04,6.55,2.71,8.34
								c2.86,1.92,3.98,3.96,4.41,5.15c0.52-1.23,1.07-3.57-0.95-5.8c-2-2.21-3.92-5.19-3.29-6.89c0.15-0.41,0.52-0.92,1.42-1.05
								c0.84-0.12,2.05,0.18,3.06,2.29c0.12,0.25,0.35,0.26,0.42,0.26c0.07,0,0.3-0.03,0.4-0.28l1.22-2.94l0.33,1.02
								c1.63,5,5.98,4.97,6.71,4.92c0.48-0.32,2.6-1.63,4.86-1.2c1.38,0.26,2.54,1.12,3.43,2.55c1.11,1.78,1.47,3.37,1.05,4.71
								c-0.48,1.55-1.81,2.17-1.87,2.19l-0.54,0.25l-0.02-0.59c0-0.03-0.04-0.84-0.76-1.49c-0.65-0.59-1.66-0.86-2.99-0.8
								c-1.71,0.08-2.37,1.13-2.62,2c-0.47,1.62,0.16,3.7,1.38,4.53c2,1.36,3.75-0.91,3.83-1l0.24-0.32l0.32,0.25
								c3.62,2.85,1.32,6.22,1.29,6.25l-0.12,0.17l-2.74-0.05c-0.38,0.7-0.46,1.38-0.25,2.01c0.51,1.56,2.57,2.45,2.59,2.46
								l0.91,0.39l-0.94,0.33c-0.6,0.21-0.93,0.55-0.99,1.04c-0.16,1.23,1.32,3.6,5.01,6.12c4.74,3.23,6.04,7.4,6.09,7.57
								L121.54,74.91z M114.49,74.79c0-0.23,0.06-0.46,0.2-0.67c0.6-0.94,2.4-1.04,5.64-0.31c-0.56-1.28-2.12-4.17-5.52-6.49
								c-3.49-2.38-5.58-5.08-5.35-6.86c0.05-0.4,0.24-0.91,0.79-1.31c-0.76-0.45-1.93-1.32-2.34-2.58
								c-0.3-0.92-0.15-1.88,0.44-2.84l0.12-0.19l2.77,0.05c0.35-0.62,1.32-2.78-0.94-4.78c-0.91,1-2.75,2.15-4.64,0.86
								c-1.5-1.02-2.26-3.44-1.69-5.38c0.45-1.55,1.67-2.48,3.35-2.56c1.56-0.07,2.77,0.27,3.58,1.01c0.51,0.47,0.76,1,0.88,1.4
								c0.34-0.27,0.79-0.73,1-1.44c0.34-1.12,0.01-2.48-0.97-4.06c-0.77-1.23-1.75-1.97-2.9-2.19c-2.17-0.42-4.32,1.11-4.34,1.13
								l-0.09,0.06l-0.11,0.01c-0.05,0.01-5.08,0.46-7.28-4.5l-0.43,1.03c-0.19,0.46-0.62,0.75-1.11,0.76
								c-0.5,0.01-0.94-0.26-1.16-0.7c-0.45-0.93-1.2-2.01-2.23-1.86c-0.56,0.08-0.72,0.35-0.79,0.54
								c-0.41,1.11,0.88,3.62,3.14,6.11c3.27,3.61,0.59,7.58,0.56,7.62l-0.62,0.89l-0.1-1.08c0-0.03-0.35-2.96-4.33-5.63
								c-3.05-2.04-4.13-6.76-2.99-9.3c0.54-1.2,1.53-1.81,2.78-1.74l-1.09-2.73c-0.16-0.4-0.03-0.83,0.33-1.08
								c0.36-0.25,0.81-0.22,1.14,0.06l3.2,2.76c0.21-0.16,0.53-0.48,0.61-1c0.13-0.78-0.23-2.2-2.66-4.49
								c-4.53-4.26-4.93-7.13-4.63-8.65c-0.52,0.38-1.22,1.29-1.47,3.49c-0.03,0.29-0.11,0.97-0.64,1.02c-0.35,0.04-0.78,0.08-2-3.2
								c0.63,23.57,12.42,45.47,31.95,59.25C114.51,75.08,114.49,74.93,114.49,74.79z"/>
						</g>
					</g>
					<g id="XMLID_277_">
						<g id="XMLID_282_">
							<path id="XMLID_283_" class="st5" d="M88.04,8.7c0,0,4.29,3.06,7.19,10.24c2.9,7.18,8.74,4.69,8.96,0.16
								c0,0-4.24,1.61-4.76-6.18S94.54-1.16,94.54-1.16l-4.59-0.99C89.95-2.15,90.49,4.21,88.04,8.7z"/>
						</g>
						<g id="XMLID_278_">
							<path id="XMLID_279_" class="st4" d="M104.6,18.53l-0.03,0.59c-0.11,2.37-1.7,4.33-3.78,4.68c-2.37,0.39-4.59-1.37-5.94-4.71
								c-2.82-7-7.01-10.04-7.06-10.07l-0.28-0.2l0.16-0.3c2.37-4.34,1.87-10.58,1.86-10.64l-0.04-0.52l5.27,1.13l0.09,0.13
								c0.04,0.06,4.43,6.48,4.95,14.28c0.19,2.87,0.93,4.79,2.15,5.57c1.02,0.65,2.03,0.29,2.08,0.27L104.6,18.53z M88.54,8.6
								c1,0.8,4.53,3.95,7.06,10.2c1.2,2.97,3.1,4.55,5.08,4.23c1.56-0.26,2.79-1.66,3.06-3.43c-0.53,0.07-1.36,0.05-2.19-0.47
								c-1.46-0.92-2.31-3-2.52-6.18C98.56,5.96,94.9,0.11,94.3-0.82l-3.93-0.84C90.44-0.07,90.48,4.79,88.54,8.6z"/>
						</g>
					</g>
					<g id="XMLID_270_">
						<g id="XMLID_275_">
							<path id="XMLID_276_" class="st5" d="M82.27,7.4c1.97-0.98,3.94-2.94,4.65-6.83c1.61-8.79,6.45-7.02,6.45-7.02l-0.57-4.68
								l-3-1.61c0,0,1.51-3.99,0.9-8.08C86.14-12.25,83.2-2.72,82.27,7.4z"/>
						</g>
						<g id="XMLID_271_">
							<path id="XMLID_272_" class="st4" d="M93.84-5.86l-0.61-0.22C93.19-6.1,92-6.51,90.66-5.75c-1.59,0.9-2.74,3.11-3.34,6.38
								c-0.63,3.43-2.26,5.82-4.86,7.11l-0.64,0.32l0.06-0.7c0.91-9.97,3.76-19.51,8.47-28.36l0.57-1.06l0.18,1.19
								c0.52,3.52-0.46,6.91-0.81,7.95l2.89,1.55L93.84-5.86z M82.74,6.69c2-1.24,3.27-3.32,3.8-6.19c0.65-3.57,1.91-5.9,3.75-6.93
								c1.05-0.59,2.03-0.6,2.64-0.52l-0.48-3.93l-3.12-1.67l0.12-0.32c0.01-0.03,1.16-3.12,1-6.58
								C86.25-11.25,83.67-2.46,82.74,6.69z"/>
						</g>
					</g>
					<g id="XMLID_263_">
						<g id="XMLID_268_">
							<path id="XMLID_269_" class="st5" d="M117.12-8.65c0.15,1.15,1.36,1.86,2.44,1.4c0.65-0.27,1.45-0.68,2.44-1.28
								c3.4-2.08,5.89,1.99,5.89,1.99s2.37-7.16-2.42-8.22c-4.28-0.94-3.7,2.9-7.15,4.09c-0.81,0.28-1.34,1.03-1.23,1.86
								L117.12-8.65z"/>
						</g>
						<g id="XMLID_264_">
							<path id="XMLID_265_" class="st4" d="M128.88-10.02c-0.03,1.85-0.57,3.5-0.61,3.61l-0.27,0.81l-0.45-0.73
								c-0.01-0.02-1.19-1.91-2.94-2.32c-0.8-0.19-1.61-0.04-2.41,0.45c-0.91,0.55-1.75,0.99-2.5,1.31
								c-0.62,0.26-1.32,0.22-1.91-0.12c-0.6-0.34-0.99-0.92-1.08-1.6l-0.02-0.15c-0.13-1,0.49-1.93,1.49-2.28
								c1.32-0.45,2-1.34,2.66-2.19c0.96-1.24,1.95-2.52,4.7-1.91c1.18,0.26,2.06,0.88,2.62,1.85
								C128.74-12.32,128.9-11.14,128.88-10.02z M127.73-7.42c0.3-1.27,0.72-3.82-0.24-5.48c-0.45-0.78-1.14-1.26-2.1-1.47
								c-2.25-0.5-2.94,0.39-3.9,1.62c-0.7,0.9-1.49,1.92-3.03,2.45c-0.65,0.22-1.05,0.82-0.97,1.45l0.02,0.15
								c0.05,0.43,0.31,0.8,0.69,1.02c0.37,0.21,0.82,0.24,1.21,0.07c0.71-0.3,1.52-0.72,2.39-1.25c0.99-0.6,2-0.79,3.01-0.55
								C126.15-9.09,127.16-8.1,127.73-7.42z"/>
						</g>
					</g>
					<g id="XMLID_256_">
						<g id="XMLID_261_">
							<path id="XMLID_262_" class="st5" d="M99.12,0.59c0.27,2.89,4.77,2.51,4.55-0.39c0-0.03-0.01-0.07-0.01-0.1
								c-0.33-3.51-3.87-3.18-4.46-0.73C99.11-0.19,99.09,0.21,99.12,0.59z"/>
						</g>
						<g id="XMLID_257_">
							<path id="XMLID_258_" class="st4" d="M104.08,0.46c-0.03,1.51-1.23,2.39-2.47,2.49c-1.31,0.11-2.72-0.66-2.88-2.33v0
								c-0.04-0.44-0.01-0.89,0.1-1.34c0.32-1.34,1.48-2.26,2.77-2.17c1.06,0.07,2.27,0.88,2.47,2.95l0.01,0.11
								C104.08,0.27,104.08,0.37,104.08,0.46z M99.52,0.55c0.11,1.23,1.1,1.7,2.02,1.62c0.9-0.07,1.83-0.71,1.74-1.94l-0.01-0.09
								c-0.13-1.34-0.77-2.18-1.73-2.25c-0.77-0.05-1.68,0.47-1.94,1.57C99.51-0.17,99.48,0.2,99.52,0.55L99.52,0.55z"/>
						</g>
					</g>
					<g id="XMLID_249_">
						<g id="XMLID_254_">
							<path id="XMLID_255_" class="st5" d="M134.48,80.92c0,0,1.53-2.79-3.9-2.79c-3.2,0-5.09,1.64-8.32,2.33
								c0.8,0.43,1.61,0.85,2.42,1.25C124.7,81.71,130.66,79.4,134.48,80.92z"/>
						</g>
						<g id="XMLID_250_">
							<path id="XMLID_251_" class="st4" d="M135.07,80.13c-0.01,0.54-0.23,0.95-0.25,0.98l-0.17,0.31l-0.33-0.13
								c-3.59-1.43-9.26,0.7-9.5,0.8l-0.16,0.06l-0.16-0.08c-0.82-0.4-1.63-0.83-2.43-1.26l-0.93-0.5l1.03-0.22
								c1.27-0.27,2.34-0.7,3.38-1.12c1.57-0.63,3.04-1.22,5.02-1.22c2.25,0,3.67,0.47,4.24,1.41
								C135.02,79.48,135.08,79.82,135.07,80.13z M134.24,80.42c0.06-0.24,0.08-0.57-0.11-0.88c-0.29-0.47-1.14-1.02-3.55-1.02
								c-1.82,0-3.23,0.57-4.72,1.17c-0.79,0.32-1.6,0.64-2.52,0.91c0.45,0.24,0.91,0.47,1.37,0.7
								C125.69,80.94,130.69,79.26,134.24,80.42z"/>
						</g>
					</g>
					<g id="XMLID_242_">
						<g id="XMLID_247_">
							<path id="XMLID_248_" class="st5" d="M138.38,76.3c1.17,0.02,2.11,0.58,2.1,1.25c-0.01,0.67-0.97,1.2-2.15,1.18
								c-1.17-0.02-2.11-0.58-2.1-1.25C136.24,76.81,137.2,76.28,138.38,76.3z"/>
						</g>
						<g id="XMLID_243_">
							<path id="XMLID_244_" class="st4" d="M140.87,77.56c-0.02,0.9-1.14,1.59-2.55,1.56c-1.41-0.02-2.51-0.75-2.49-1.65
								c0.02-0.9,1.14-1.59,2.55-1.56C139.8,75.94,140.89,76.66,140.87,77.56z M136.63,77.49c-0.01,0.39,0.72,0.84,1.71,0.86
								c0.99,0.02,1.74-0.41,1.74-0.8c0.01-0.39-0.72-0.84-1.71-0.86C137.38,76.67,136.63,77.1,136.63,77.49z"/>
						</g>
					</g>
					<g id="XMLID_235_">
						<g id="XMLID_240_">
							<path id="XMLID_241_" class="st5" d="M123.35-5.62c1.12,0.02,2.01,0.82,1.99,1.78c-0.02,0.97-0.94,1.73-2.06,1.71
								c-1.12-0.02-2.01-0.82-1.99-1.78C121.31-4.87,122.24-5.64,123.35-5.62z"/>
						</g>
						<g id="XMLID_236_">
							<path id="XMLID_237_" class="st4" d="M125.74-3.82c-0.02,1.18-1.12,2.12-2.46,2.1c-1.33-0.02-2.4-1-2.38-2.18
								c0.02-1.18,1.12-2.12,2.46-2.1C124.69-5.98,125.76-5,125.74-3.82z M121.69-3.9c-0.01,0.75,0.71,1.37,1.61,1.39
								c0.9,0.02,1.64-0.58,1.65-1.33c0.01-0.75-0.71-1.37-1.61-1.39C122.45-5.24,121.71-4.65,121.69-3.9z"/>
						</g>
					</g>
					<g id="XMLID_228_">
						<g id="XMLID_233_">
							<path id="XMLID_234_" class="st5" d="M182.33,25.56c1.12,0.02,2.01,0.78,1.99,1.69c-0.02,0.91-0.94,1.64-2.05,1.62
								c-1.12-0.02-2.01-0.78-1.99-1.69S181.21,25.54,182.33,25.56z"/>
						</g>
						<g id="XMLID_229_">
							<path id="XMLID_230_" class="st4" d="M184.72,27.26c-0.02,1.13-1.12,2.02-2.46,2c-1.33-0.02-2.4-0.96-2.38-2.08
								c0.02-1.13,1.12-2.02,2.46-2C183.67,25.2,184.74,26.13,184.72,27.26z M180.67,27.18c-0.01,0.7,0.71,1.28,1.61,1.29
								c0.9,0.02,1.64-0.54,1.65-1.24c0.01-0.7-0.71-1.28-1.61-1.29C181.43,25.93,180.68,26.49,180.67,27.18z"/>
						</g>
					</g>
					<g id="XMLID_221_">
						<g id="XMLID_226_">
							<path id="XMLID_227_" class="st5" d="M178.16,28.21c0.73,0.01,1.32,0.65,1.3,1.43c-0.01,0.78-0.62,1.4-1.35,1.39
								c-0.73-0.01-1.32-0.65-1.3-1.43C176.82,28.82,177.43,28.2,178.16,28.21z"/>
						</g>
						<g id="XMLID_222_">
							<path id="XMLID_223_" class="st4" d="M179.86,29.65c-0.02,0.99-0.81,1.78-1.76,1.77c-0.95-0.02-1.71-0.84-1.69-1.83
								c0.02-0.99,0.81-1.78,1.76-1.77C179.12,27.84,179.88,28.66,179.86,29.65z M177.2,29.6c-0.01,0.56,0.4,1.03,0.92,1.04
								c0.52,0.01,0.94-0.44,0.95-1s-0.4-1.03-0.92-1.04C177.64,28.59,177.21,29.04,177.2,29.6z"/>
						</g>
					</g>
					<g id="XMLID_214_">
						<g id="XMLID_219_">
							<path id="XMLID_220_" class="st5" d="M151.27-28.86c1.16-0.26,2.51-1.08,2.55-3.45l0,0c-0.91-0.75-2.31-0.55-2.92,0.46
								c-0.47,0.78-1.15,1.46-2.06,1.4l0.23,0.5C149.45-29.12,150.37-28.66,151.27-28.86z"/>
						</g>
						<g id="XMLID_215_">
							<path id="XMLID_216_" class="st4" d="M154.22-32.48l0,0.19c-0.05,2.77-1.81,3.58-2.86,3.82h0c-1.08,0.24-2.19-0.31-2.65-1.31
								l-0.5-1.08l0.66,0.04c0.61,0.04,1.18-0.37,1.69-1.21c0.34-0.57,0.93-0.96,1.6-1.07c0.68-0.11,1.38,0.07,1.91,0.51
								L154.22-32.48z M151.18-29.24c1.4-0.32,2.15-1.28,2.24-2.88c-0.33-0.21-0.73-0.3-1.12-0.23c-0.44,0.07-0.82,0.33-1.05,0.7
								c-0.6,0.99-1.25,1.4-1.81,1.53l0,0C149.74-29.45,150.48-29.08,151.18-29.24L151.18-29.24z"/>
						</g>
					</g>
					<g id="XMLID_207_">
						<g id="XMLID_212_">
							<path id="XMLID_213_" class="st5" d="M115.68,47.85c1.16-0.26,2.51-1.08,2.55-3.45l0,0c-0.91-0.75-2.31-0.55-2.92,0.46
								c-0.47,0.78-1.15,1.46-2.06,1.4l0.23,0.5C113.86,47.58,114.78,48.05,115.68,47.85z"/>
						</g>
						<g id="XMLID_208_">
							<path id="XMLID_209_" class="st4" d="M118.63,44.22l0,0.19c-0.05,2.77-1.81,3.58-2.86,3.82h0c-1.07,0.24-2.19-0.31-2.65-1.31
								l-0.5-1.09l0.66,0.04c0.61,0.04,1.18-0.37,1.69-1.21c0.35-0.57,0.93-0.96,1.6-1.07c0.68-0.11,1.38,0.07,1.91,0.51
								L118.63,44.22z M115.59,47.47c1.4-0.32,2.15-1.28,2.24-2.88c-0.33-0.21-0.73-0.3-1.12-0.23c-0.44,0.07-0.82,0.33-1.05,0.7
								c-0.6,0.99-1.25,1.4-1.81,1.53l0,0C114.15,47.26,114.88,47.63,115.59,47.47L115.59,47.47z"/>
						</g>
					</g>
					<g id="XMLID_200_">
						<g id="XMLID_205_">
							<path id="XMLID_206_" class="st5" d="M225.64,0.56c-0.41,0.33-0.19,0.99,0.34,1.02c1.46,0.09,3.76,0.56,5.53,2.49
								c2.03,2.22,0.77,3.72-0.09,4.37c-0.28,0.21-0.3,0.61-0.05,0.85c3.05,3.07,4.35,10.92,4.41,11.26
								c0.15-1.73,0.25-3.47,0.28-5.23c0.09-4.88-0.3-9.66-1.11-14.3C231.01-2.77,227.39-0.85,225.64,0.56z"/>
						</g>
						<g id="XMLID_201_">
							<path id="XMLID_202_" class="st4" d="M236.45,15.34c-0.03,1.7-0.13,3.46-0.28,5.26l-0.27,3.15l-0.51-3.12
								c-0.05-0.33-1.35-8.08-4.3-11.05c-0.2-0.2-0.3-0.46-0.28-0.74c0.02-0.27,0.15-0.52,0.37-0.69c0.43-0.33,0.96-0.88,1.03-1.62
								c0.06-0.68-0.27-1.41-0.99-2.19c-1.64-1.79-3.76-2.27-5.26-2.36c-0.41-0.02-0.75-0.29-0.88-0.67c-0.12-0.38,0-0.79,0.31-1.04
								l0,0c1.53-1.23,5.54-3.65,9.83,0.49l0.09,0.09l0.02,0.12C236.17,5.7,236.54,10.53,236.45,15.34z M235.58,17.68
								c0.04-0.8,0.07-1.58,0.08-2.36c0.09-4.71-0.28-9.46-1.09-14.11c-3.65-3.45-7-1.71-8.68-0.35c-0.09,0.07-0.07,0.15-0.06,0.2
								c0.01,0.04,0.05,0.12,0.17,0.13c1.64,0.1,3.98,0.63,5.8,2.62c0.87,0.94,1.26,1.89,1.19,2.77c-0.09,1.02-0.77,1.74-1.33,2.17
								c-0.06,0.04-0.07,0.1-0.07,0.13c0,0.03,0,0.09,0.06,0.14C233.66,11.05,234.92,14.97,235.58,17.68z"/>
						</g>
					</g>
					<g id="XMLID_193_">
						<g id="XMLID_198_">
							<path id="XMLID_199_" class="st5" d="M94.52-27.17c1.8-1.3,4-2.37,6.14-2.08c0.38,0.05,0.6-0.39,0.34-0.66
								c-0.62-0.64-1.64-1.48-3.09-2C96.72-30.38,95.59-28.8,94.52-27.17z"/>
						</g>
						<g id="XMLID_194_">
							<path id="XMLID_195_" class="st4" d="M101.51-29.63c0,0.12-0.03,0.24-0.09,0.35c-0.16,0.3-0.47,0.46-0.81,0.42
								c-1.72-0.23-3.69,0.44-5.85,2.01l-1.74,1.25l1.17-1.78c1.07-1.63,2.22-3.23,3.41-4.76l0.18-0.23l0.27,0.1
								c1.55,0.56,2.62,1.45,3.24,2.1C101.44-30.03,101.51-29.83,101.51-29.63z M95.9-28.52c1.72-0.94,3.34-1.32,4.81-1.12
								c-0.53-0.56-1.41-1.3-2.67-1.81C97.31-30.49,96.59-29.51,95.9-28.52z"/>
						</g>
					</g>
					<g id="XMLID_186_">
						<g id="XMLID_191_">
							<path id="XMLID_192_" class="st5" d="M156.21,77.83c0,0,4.87-1.6,8.83-1.01c0,0-0.84-3.64-5.86-2.83
								C159.17,74,160.2,75.7,156.21,77.83z"/>
						</g>
						<g id="XMLID_187_">
							<path id="XMLID_188_" class="st4" d="M165.55,77.29l-0.57-0.08c-3.82-0.57-8.59,0.98-8.64,1l-0.31-0.71
								c3.52-1.88,2.82-3.29,2.81-3.31l-0.25-0.48l0.53-0.1c5.33-0.87,6.3,3.08,6.31,3.12L165.55,77.29z M158.36,76.86
								c1.64-0.36,3.93-0.7,6.08-0.51c-0.43-0.86-1.65-2.4-4.76-2.04c0.02,0.21,0.02,0.47-0.07,0.78
								C159.44,75.69,159.02,76.29,158.36,76.86z"/>
						</g>
					</g>
				</g>
				<g id="XMLID_178_">
					<g id="XMLID_183_">
						<path id="XMLID_184_" class="st3" d="M143.42-46.97c0,0,2.94,1.37,1.42,3.56c-1.52,2.2-6.05,1.21-8.98-0.65
							c0,0,4.08-1.49,1.56-4.5C134.91-51.57,144.01-52.23,143.42-46.97z"/>
					</g>
					<g id="XMLID_179_">
						<path id="XMLID_180_" class="st4" d="M145.67-44.61c-0.01,0.47-0.18,0.95-0.51,1.42c-1.73,2.49-6.64,1.29-9.52-0.54
							l-0.66-0.42l0.74-0.27c0.02-0.01,1.74-0.66,2.07-1.86c0.17-0.61-0.06-1.29-0.68-2.03c-0.81-0.97-0.52-1.67-0.27-2.01
							c0.71-0.97,2.77-1.24,4.49-0.59c1.7,0.64,2.6,1.96,2.5,3.72c0.47,0.27,1.47,0.95,1.76,1.98
							C145.65-45.01,145.67-44.81,145.67-44.61z M136.69-44.02c2.88,1.6,6.61,2.15,7.82,0.39c0.34-0.49,0.44-0.94,0.32-1.38
							c-0.23-0.82-1.22-1.44-1.58-1.61L143-46.74l0.03-0.28c0.23-2.03-1.14-2.86-1.97-3.17c-1.47-0.56-3.13-0.29-3.57,0.32
							c-0.2,0.27-0.12,0.63,0.24,1.06c0.79,0.94,1.06,1.86,0.83,2.72C138.28-45.06,137.35-44.39,136.69-44.02z"/>
					</g>
				</g>
				<g id="XMLID_171_">
					<g id="XMLID_176_">
						<path id="XMLID_177_" class="st3" d="M183.81-57.79c-0.06,0.04-4.21,2.65-8.22,2.17c-4.04-0.48-13.33-0.72-6.02,5.28
							c0,0,11.17-6.15,21.44-4.64C188.67-56.03,186.27-56.97,183.81-57.79z"/>
					</g>
					<g id="XMLID_172_">
						<path id="XMLID_173_" class="st4" d="M193.74-54.19l-2.79-0.41c-10.01-1.47-21.08,4.53-21.19,4.59l-0.24,0.13l-0.21-0.17
							c-2.33-1.91-3.22-3.39-2.73-4.52c0.98-2.23,7.18-1.67,9.05-1.44c3.84,0.46,7.79-2,7.96-2.11l0.16-0.1l0.18,0.06
							c2.39,0.79,4.83,1.74,7.23,2.82L193.74-54.19z M169.61-50.81c1.55-0.8,10.29-5.1,18.99-4.78c-1.59-0.65-3.18-1.25-4.75-1.77
							c-0.83,0.49-4.61,2.57-8.32,2.13c-3.57-0.43-7.67-0.3-8.23,0.98C167.12-53.84,167.19-52.85,169.61-50.81z"/>
					</g>
				</g>
				<g id="XMLID_164_">
					<g id="XMLID_168_">
						<g id="XMLID_169_">
							<path id="XMLID_170_" class="st4" d="M200.3,83.37c-2.16,1.27-4.42,2.45-6.73,3.52l-0.34-0.7c2.28-1.05,4.52-2.22,6.66-3.48
								L200.3,83.37z"/>
						</g>
					</g>
					<g id="XMLID_165_">
						<g id="XMLID_166_">
							<path id="XMLID_167_" class="st4" d="M190.37,88.28c-15.62,6.37-29.07,5.94-29.21,5.93l0.03-0.78
								c0.13,0.01,13.43,0.42,28.87-5.87L190.37,88.28z"/>
						</g>
					</g>
				</g>
				<g id="XMLID_157_">
					<g id="XMLID_161_">
						<g id="XMLID_162_">
							<path id="XMLID_163_" class="st4" d="M190.34-59.96l-0.38,0.68c-0.15-0.08-15.39-8.12-36.38-6.38
								c-5.18,0.43-10.31,1.33-15.26,2.7l-0.21-0.75c4.99-1.38,10.18-2.29,15.4-2.72C174.76-68.19,190.19-60.04,190.34-59.96z"/>
						</g>
					</g>
					<g id="XMLID_158_">
						<g id="XMLID_159_">
							<path id="XMLID_160_" class="st4" d="M132.78-61.21c-8.47,3.02-13.33,6.42-13.38,6.45l-0.46-0.63
								c0.05-0.03,4.99-3.5,13.58-6.55L132.78-61.21z"/>
						</g>
					</g>
				</g>
			</g>
			<g id="XMLID_149_">
				<g id="XMLID_154_">
					<path id="XMLID_155_" class="st4" d="M99.57,96.86c-3.63,0-6.69-0.91-9.04-2.81c-7.54-6.09-6.77-20.9,2.17-41.69l0.76,0.33
						c-8.65,20.12-9.53,34.96-2.41,40.71c14.13,11.42,55.03-14.51,91.18-57.82c28.55-34.2,46.46-70.04,44.59-89.19
						c-0.44-4.52-2.01-7.9-4.66-10.04c-6.45-5.21-18.86-2.75-34.94,6.94l-0.43-0.71c16.4-9.88,29.14-12.32,35.89-6.87
						c2.83,2.29,4.5,5.86,4.97,10.61c1.9,19.35-16.1,55.44-44.78,89.8C152.34,72.68,118.32,96.86,99.57,96.86z"/>
				</g>
				<g id="XMLID_152_">
					<path id="XMLID_153_" class="st4" d="M201.56,52.7c-15.39,0-32.86-1.58-51.15-4.92c-44.67-8.15-82.11-24.42-93.16-40.49
						c-2.65-3.86-3.67-7.58-3.01-11.07C55.97-13,69.01-19.44,90.95-21.91l0.09,0.82c-21.23,2.39-34.35,8.75-35.99,17.45
						c-0.61,3.26,0.35,6.78,2.88,10.45c10.93,15.9,48.15,32.04,92.62,40.14c55.99,10.21,104.25,4.12,107.58-13.57
						c1.51-8-6.53-17.41-22.64-26.5l0.41-0.72c16.44,9.28,24.62,19,23.05,27.38C256.64,45.81,233.65,52.7,201.56,52.7z"/>
				</g>
				<g id="XMLID_150_">
					<path id="XMLID_151_" class="st4" d="M191.43,110.55c-8.15,0-18.56-7.09-29.94-20.52l0.63-0.54
						c13.43,15.85,25.38,22.75,33.64,19.41c3.2-1.29,5.73-4.1,7.5-8.35c7.45-17.8,1.02-57.2-15.99-98.05
						c-21.6-51.85-52.95-88.48-69.85-81.65c-8.21,3.31-11.88,16.98-10.07,37.51l-0.83,0.07c-1.87-21.22,1.89-34.84,10.59-38.35
						c17.34-6.99,49.16,29.84,70.93,82.1c17.09,41.04,23.52,80.7,15.99,98.69c-1.87,4.46-4.55,7.42-7.96,8.8
						C194.63,110.26,193.07,110.55,191.43,110.55z"/>
				</g>
			</g>
		</g>
		<g id="XMLID_7_" class="st2">
			<g id="XMLID_143_">
				<circle id="XMLID_147_" class="st6" cx="54.82" cy="-3.49" r="0.91"/>
				<path id="XMLID_144_" class="st7" d="M54.82-2.2c-0.71,0-1.29-0.58-1.29-1.29c0-0.71,0.58-1.29,1.29-1.29
					c0.71,0,1.29,0.58,1.29,1.29C56.11-2.78,55.53-2.2,54.82-2.2z M54.82-4.01c-0.29,0-0.52,0.23-0.52,0.52s0.23,0.52,0.52,0.52
					c0.29,0,0.52-0.23,0.52-0.52S55.1-4.01,54.82-4.01z"/>
			</g>
			<g id="XMLID_138_">
				<path id="XMLID_142_" class="st6" d="M135.1-75.8c0,0.5-0.41,0.91-0.91,0.91c-0.5,0-0.91-0.41-0.91-0.91
					c0-0.5,0.41-0.91,0.91-0.91C134.69-76.7,135.1-76.3,135.1-75.8z"/>
				<path id="XMLID_139_" class="st7" d="M134.19-74.51c-0.71,0-1.29-0.58-1.29-1.29c0-0.71,0.58-1.29,1.29-1.29
					c0.71,0,1.29,0.58,1.29,1.29C135.48-75.09,134.9-74.51,134.19-74.51z M134.19-76.32c-0.29,0-0.52,0.23-0.52,0.52
					s0.23,0.52,0.52,0.52c0.29,0,0.52-0.23,0.52-0.52S134.48-76.32,134.19-76.32z"/>
			</g>
			<g id="XMLID_133_">
				<path id="XMLID_137_" class="st6" d="M225.19-33.15c0,0.5-0.41,0.91-0.91,0.91s-0.91-0.41-0.91-0.91c0-0.5,0.41-0.91,0.91-0.91
					S225.19-33.65,225.19-33.15z"/>
				<path id="XMLID_134_" class="st7" d="M224.29-31.86c-0.71,0-1.29-0.58-1.29-1.29c0-0.71,0.58-1.29,1.29-1.29
					c0.71,0,1.29,0.58,1.29,1.29C225.58-32.44,225-31.86,224.29-31.86z M224.29-33.67c-0.29,0-0.52,0.23-0.52,0.52
					c0,0.29,0.23,0.52,0.52,0.52c0.29,0,0.52-0.23,0.52-0.52C224.81-33.43,224.57-33.67,224.29-33.67z"/>
			</g>
			<g id="XMLID_128_">
				<circle id="XMLID_132_" class="st6" cx="167.9" cy="96.86" r="0.91"/>
				<path id="XMLID_129_" class="st7" d="M167.9,98.15c-0.71,0-1.29-0.58-1.29-1.29c0-0.71,0.58-1.29,1.29-1.29
					c0.71,0,1.29,0.58,1.29,1.29C169.2,97.57,168.62,98.15,167.9,98.15z M167.9,96.34c-0.29,0-0.52,0.23-0.52,0.52
					c0,0.29,0.23,0.52,0.52,0.52c0.29,0,0.52-0.23,0.52-0.52C168.42,96.57,168.19,96.34,167.9,96.34z"/>
			</g>
			<g id="XMLID_123_">
				<circle id="XMLID_127_" class="st6" cx="80.2" cy="-19.95" r="0.91"/>
				<path id="XMLID_124_" class="st7" d="M80.2-18.66c-0.71,0-1.29-0.58-1.29-1.29c0-0.71,0.58-1.29,1.29-1.29
					c0.71,0,1.29,0.58,1.29,1.29C81.49-19.24,80.91-18.66,80.2-18.66z M80.2-20.47c-0.29,0-0.52,0.23-0.52,0.52s0.23,0.52,0.52,0.52
					c0.29,0,0.52-0.23,0.52-0.52S80.49-20.47,80.2-20.47z"/>
			</g>
			<g id="XMLID_118_">
				<path id="XMLID_122_" class="st6" d="M254.15,19.46c0,0.5-0.41,0.91-0.91,0.91c-0.5,0-0.91-0.41-0.91-0.91
					c0-0.5,0.41-0.91,0.91-0.91C253.75,18.56,254.15,18.96,254.15,19.46z"/>
				<path id="XMLID_119_" class="st7" d="M253.25,20.75c-0.71,0-1.29-0.58-1.29-1.29c0-0.71,0.58-1.29,1.29-1.29
					c0.71,0,1.29,0.58,1.29,1.29C254.54,20.17,253.96,20.75,253.25,20.75z M253.25,18.94c-0.29,0-0.52,0.23-0.52,0.52
					s0.23,0.52,0.52,0.52c0.29,0,0.52-0.23,0.52-0.52S253.53,18.94,253.25,18.94z"/>
			</g>
			<g id="XMLID_113_">
				<path id="XMLID_117_" class="st8" d="M148.41,46.45c0,1.18-0.95,2.13-2.13,2.13c-1.18,0-2.13-0.95-2.13-2.13
					c0-1.18,0.95-2.13,2.13-2.13C147.46,44.32,148.41,45.27,148.41,46.45z"/>
				<path id="XMLID_114_" class="st7" d="M146.28,48.97c-1.39,0-2.52-1.13-2.52-2.52c0-1.39,1.13-2.52,2.52-2.52
					c1.39,0,2.52,1.13,2.52,2.52C148.8,47.84,147.67,48.97,146.28,48.97z M146.28,44.71c-0.96,0-1.74,0.78-1.74,1.74
					c0,0.96,0.78,1.74,1.74,1.74c0.96,0,1.74-0.78,1.74-1.74C148.02,45.49,147.24,44.71,146.28,44.71z"/>
			</g>
			<g id="XMLID_108_">
				<path id="XMLID_112_" class="st8" d="M87.51,81.25c0,1.18-0.95,2.13-2.13,2.13c-1.18,0-2.13-0.95-2.13-2.13
					c0-1.18,0.95-2.13,2.13-2.13C86.56,79.12,87.51,80.08,87.51,81.25z"/>
				<path id="XMLID_109_" class="st7" d="M85.38,83.77c-1.39,0-2.52-1.13-2.52-2.52c0-1.39,1.13-2.52,2.52-2.52
					c1.39,0,2.52,1.13,2.52,2.52C87.9,82.64,86.77,83.77,85.38,83.77z M85.38,79.51c-0.96,0-1.74,0.78-1.74,1.74
					c0,0.96,0.78,1.74,1.74,1.74c0.96,0,1.74-0.78,1.74-1.74C87.13,80.29,86.34,79.51,85.38,79.51z"/>
			</g>
			<g id="XMLID_102_">
				<path id="XMLID_107_" class="st8" d="M227.56-39.72c0,1.18-0.95,2.13-2.13,2.13c-1.18,0-2.13-0.95-2.13-2.13
					c0-1.18,0.95-2.13,2.13-2.13C226.61-41.85,227.56-40.89,227.56-39.72z"/>
				<path id="XMLID_103_" class="st7" d="M225.43-37.2c-1.39,0-2.52-1.13-2.52-2.52c0-1.39,1.13-2.52,2.52-2.52
					c1.39,0,2.52,1.13,2.52,2.52C227.95-38.33,226.82-37.2,225.43-37.2z M225.43-41.46c-0.96,0-1.74,0.78-1.74,1.74
					c0,0.96,0.78,1.74,1.74,1.74s1.74-0.78,1.74-1.74C227.18-40.68,226.39-41.46,225.43-41.46z"/>
			</g>
			<g id="XMLID_67_">
				<path id="XMLID_101_" class="st8" d="M182.8-12.73c0,1.18-0.95,2.13-2.13,2.13c-1.18,0-2.13-0.95-2.13-2.13s0.95-2.13,2.13-2.13
					C181.85-14.86,182.8-13.91,182.8-12.73z"/>
				<path id="XMLID_70_" class="st7" d="M180.67-10.22c-1.39,0-2.52-1.13-2.52-2.52c0-1.39,1.13-2.52,2.52-2.52
					c1.39,0,2.52,1.13,2.52,2.52C183.19-11.34,182.06-10.22,180.67-10.22z M180.67-14.48c-0.96,0-1.74,0.78-1.74,1.74
					c0,0.96,0.78,1.74,1.74,1.74c0.96,0,1.74-0.78,1.74-1.74C182.41-13.69,181.63-14.48,180.67-14.48z"/>
			</g>
			<g id="XMLID_62_">
				<path id="XMLID_66_" class="st8" d="M141.47-72.35c0,1.18-0.95,2.13-2.13,2.13c-1.18,0-2.13-0.95-2.13-2.13
					c0-1.18,0.95-2.13,2.13-2.13C140.52-74.48,141.47-73.52,141.47-72.35z"/>
				<path id="XMLID_63_" class="st7" d="M139.34-69.83c-1.39,0-2.52-1.13-2.52-2.52c0-1.39,1.13-2.52,2.52-2.52
					c1.39,0,2.52,1.13,2.52,2.52C141.86-70.96,140.73-69.83,139.34-69.83z M139.34-74.09c-0.96,0-1.74,0.78-1.74,1.74
					c0,0.96,0.78,1.74,1.74,1.74c0.96,0,1.74-0.78,1.74-1.74C141.08-73.31,140.3-74.09,139.34-74.09z"/>
			</g>
			<g id="XMLID_57_">
				<path id="XMLID_61_" class="st8" d="M209.28,80.53c0,1.18-0.95,2.13-2.13,2.13c-1.18,0-2.13-0.95-2.13-2.13
					c0-1.18,0.95-2.13,2.13-2.13C208.33,78.4,209.28,79.35,209.28,80.53z"/>
				<path id="XMLID_58_" class="st7" d="M207.15,83.05c-1.39,0-2.52-1.13-2.52-2.52c0-1.39,1.13-2.52,2.52-2.52
					c1.39,0,2.52,1.13,2.52,2.52C209.67,81.92,208.54,83.05,207.15,83.05z M207.15,78.79c-0.96,0-1.74,0.78-1.74,1.74
					c0,0.96,0.78,1.74,1.74,1.74c0.96,0,1.74-0.78,1.74-1.74C208.89,79.57,208.11,78.79,207.15,78.79z"/>
			</g>
			<g id="XMLID_52_">
				<circle id="XMLID_56_" class="st8" cx="240.32" cy="47.89" r="1.7"/>
				<path id="XMLID_53_" class="st7" d="M240.32,49.98c-1.15,0-2.09-0.94-2.09-2.09c0-1.15,0.94-2.09,2.09-2.09
					c1.15,0,2.09,0.94,2.09,2.09C242.41,49.05,241.47,49.98,240.32,49.98z M240.32,46.58c-0.73,0-1.32,0.59-1.32,1.32
					c0,0.73,0.59,1.32,1.32,1.32c0.73,0,1.32-0.59,1.32-1.32C241.64,47.17,241.04,46.58,240.32,46.58z"/>
			</g>
			<g id="XMLID_47_">
				<path id="XMLID_51_" class="st8" d="M179.63,51.1c0,0.94-0.76,1.7-1.7,1.7c-0.94,0-1.7-0.76-1.7-1.7c0-0.94,0.76-1.7,1.7-1.7
					C178.87,49.39,179.63,50.16,179.63,51.1z"/>
				<path id="XMLID_48_" class="st7" d="M177.92,53.19c-1.15,0-2.09-0.94-2.09-2.09c0-1.15,0.94-2.09,2.09-2.09
					c1.15,0,2.09,0.94,2.09,2.09C180.01,52.25,179.08,53.19,177.92,53.19z M177.92,49.78c-0.73,0-1.32,0.59-1.32,1.32
					c0,0.73,0.59,1.32,1.32,1.32c0.73,0,1.32-0.59,1.32-1.32C179.24,50.37,178.65,49.78,177.92,49.78z"/>
			</g>
			<g id="XMLID_42_">
				<path id="XMLID_46_" class="st8" d="M66.93,15.39c0,0.94-0.76,1.7-1.7,1.7c-0.94,0-1.7-0.76-1.7-1.7c0-0.94,0.76-1.7,1.7-1.7
					C66.17,13.69,66.93,14.45,66.93,15.39z"/>
				<path id="XMLID_43_" class="st7" d="M65.23,17.48c-1.15,0-2.09-0.94-2.09-2.09c0-1.15,0.94-2.09,2.09-2.09
					c1.15,0,2.09,0.94,2.09,2.09C67.32,16.55,66.38,17.48,65.23,17.48z M65.23,14.07c-0.73,0-1.32,0.59-1.32,1.32
					c0,0.73,0.59,1.32,1.32,1.32c0.73,0,1.32-0.59,1.32-1.32C66.55,14.67,65.95,14.07,65.23,14.07z"/>
			</g>
			<g id="XMLID_37_">
				<circle id="XMLID_41_" class="st8" cx="203.84" cy="6.69" r="1.7"/>
				<path id="XMLID_38_" class="st7" d="M203.84,8.79c-1.15,0-2.09-0.94-2.09-2.09c0-1.15,0.94-2.09,2.09-2.09
					c1.15,0,2.09,0.94,2.09,2.09C205.93,7.85,204.99,8.79,203.84,8.79z M203.84,5.38c-0.73,0-1.32,0.59-1.32,1.32
					c0,0.73,0.59,1.32,1.32,1.32c0.73,0,1.32-0.59,1.32-1.32C205.16,5.97,204.57,5.38,203.84,5.38z"/>
			</g>
			<g id="XMLID_32_">
				<path id="XMLID_36_" class="st8" d="M57.05,3.15c0,0.94-0.76,1.7-1.7,1.7c-0.94,0-1.7-0.76-1.7-1.7c0-0.94,0.76-1.7,1.7-1.7
					C56.28,1.45,57.05,2.21,57.05,3.15z"/>
				<path id="XMLID_33_" class="st7" d="M55.34,5.24c-1.15,0-2.09-0.94-2.09-2.09s0.94-2.09,2.09-2.09c1.15,0,2.09,0.94,2.09,2.09
					S56.5,5.24,55.34,5.24z M55.34,1.83c-0.73,0-1.32,0.59-1.32,1.32c0,0.73,0.59,1.32,1.32,1.32s1.32-0.59,1.32-1.32
					C56.66,2.42,56.07,1.83,55.34,1.83z"/>
			</g>
			<g id="XMLID_26_">
				<g id="XMLID_27_">
					<path id="XMLID_31_" class="st8" d="M137.86,46.89c-1.34,0.69-2.99,0.17-3.68-1.17c-0.69-1.34-0.17-2.99,1.17-3.68
						c1.34-0.69,2.99-0.17,3.68,1.17C139.73,44.55,139.2,46.2,137.86,46.89z"/>
					<path id="XMLID_28_" class="st7" d="M134.45,46.71c-0.24-0.23-0.45-0.51-0.61-0.82c-0.79-1.53-0.19-3.41,1.34-4.2
						c1.53-0.79,3.41-0.19,4.2,1.34c0.79,1.53,0.19,3.41-1.34,4.2l0,0C136.83,47.86,135.39,47.61,134.45,46.71z M138.23,42.77
						c-0.7-0.67-1.78-0.86-2.7-0.39c-1.15,0.59-1.6,2.01-1.01,3.16c0.59,1.14,2.01,1.6,3.16,1.01l0,0c1.15-0.59,1.6-2.01,1.01-3.16
						C138.57,43.15,138.41,42.95,138.23,42.77z"/>
				</g>
			</g>
			<g id="XMLID_20_">
				<g id="XMLID_21_">
					<path id="XMLID_25_" class="st8" d="M178.57-23.25c0.1,1.5-1.04,2.8-2.54,2.91c-1.5,0.1-2.8-1.04-2.91-2.54
						c-0.1-1.5,1.04-2.8,2.54-2.91C177.17-25.89,178.47-24.76,178.57-23.25z"/>
					<path id="XMLID_22_" class="st7" d="M177.05-20.19c-0.31,0.13-0.64,0.21-1,0.23c-1.71,0.11-3.2-1.19-3.32-2.9
						c-0.11-1.71,1.18-3.2,2.9-3.32c1.71-0.11,3.2,1.19,3.32,2.9l0,0C179.04-21.92,178.24-20.7,177.05-20.19z M174.94-25.23
						c-0.9,0.38-1.5,1.29-1.43,2.32c0.09,1.29,1.2,2.27,2.49,2.18c1.29-0.09,2.27-1.2,2.18-2.49l0,0c-0.09-1.29-1.21-2.27-2.49-2.18
						C175.42-25.39,175.17-25.33,174.94-25.23z"/>
				</g>
			</g>
			<g id="XMLID_14_">
				<g id="XMLID_15_">
					<path id="XMLID_19_" class="st8" d="M226.98-62.82c0.25,1.49-0.75,2.89-2.24,3.14c-1.49,0.25-2.89-0.75-3.14-2.24
						s0.75-2.89,2.24-3.14C225.32-65.31,226.73-64.31,226.98-62.82z"/>
					<path id="XMLID_16_" class="st7" d="M225.77-59.63c-0.29,0.16-0.62,0.27-0.97,0.33c-1.69,0.28-3.31-0.86-3.59-2.56
						c-0.29-1.69,0.86-3.31,2.55-3.59c1.69-0.29,3.31,0.86,3.59,2.55l0,0C227.59-61.54,226.91-60.25,225.77-59.63z M223.17-64.43
						c-0.86,0.46-1.36,1.44-1.19,2.45c0.21,1.27,1.42,2.14,2.7,1.92c1.27-0.22,2.14-1.42,1.92-2.7l0,0
						c-0.22-1.27-1.43-2.13-2.7-1.92C223.64-64.63,223.39-64.55,223.17-64.43z"/>
				</g>
			</g>
			<g id="XMLID_8_">
				<g id="XMLID_9_">
					<path id="XMLID_13_" class="st8" d="M89.31,72.35c-0.38,1.46-1.88,2.33-3.33,1.95c-1.46-0.38-2.33-1.88-1.95-3.33
						c0.38-1.46,1.88-2.33,3.33-1.95C88.82,69.4,89.69,70.89,89.31,72.35z"/>
					<path id="XMLID_10_" class="st7" d="M86.89,74.76c-0.33,0.02-0.68,0-1.02-0.09c-1.66-0.44-2.66-2.14-2.22-3.81
						c0.44-1.66,2.14-2.66,3.81-2.22c1.66,0.44,2.66,2.14,2.22,3.81l0,0C89.33,73.77,88.18,74.67,86.89,74.76z M86.5,69.32
						c-0.97,0.07-1.84,0.75-2.1,1.74c-0.33,1.25,0.42,2.53,1.67,2.86c1.25,0.33,2.53-0.42,2.86-1.67l0,0
						c0.33-1.25-0.42-2.53-1.67-2.86C87.01,69.32,86.75,69.3,86.5,69.32z"/>
				</g>
			</g>
		</g>
		<g id="XMLID_2_" class="st2">
			<g id="XMLID_4_">
				<path id="XMLID_6_" class="st9" d="M188.47,109.13c-1.52-0.31-3.11-0.84-4.76-1.6l-0.86,0.49c1.58,0.76,3.11,1.32,4.58,1.69
					L188.47,109.13z"/>
				<path id="XMLID_5_" class="st9" d="M205.88,94.92l-0.99,0.56c-0.42,1.73-0.93,3.34-1.54,4.79c-0.09,0.2-0.18,0.39-0.27,0.59
					l1.19-0.67C204.91,98.59,205.45,96.84,205.88,94.92z"/>
			</g>
			<path id="XMLID_3_" class="st9" d="M258.18,32.91c-0.02,0.15-0.04,0.31-0.07,0.46c-0.03,0.16-0.07,0.31-0.11,0.47l0.75,0.41
				c0.06-0.24,0.13-0.48,0.18-0.73c0.01-0.05,0.02-0.11,0.02-0.16L258.18,32.91z"/>
		</g>
	</g>
	<g>
		<g>
			<path d="M22.48,265.1h6.76l13.88,43.18l13.88-43.18h6.76l-17.67,52.54h-5.93L22.48,265.1z"/>
			<path d="M78.73,265.06h6.29v52.57h-6.29V265.06z M81.95,289.49h17.92c1.69,0,3.17-0.38,4.44-1.14c1.28-0.76,2.26-1.84,2.96-3.25
				c0.7-1.41,1.06-3.03,1.08-4.86c0-1.83-0.35-3.45-1.05-4.86c-0.7-1.41-1.69-2.49-2.96-3.25c-1.28-0.76-2.77-1.14-4.48-1.14H81.95
				v-5.93h17.63c3.04,0,5.7,0.63,8,1.88c2.3,1.25,4.08,3.03,5.35,5.33c1.27,2.3,1.9,4.96,1.9,7.97c0,3.01-0.63,5.67-1.9,7.97
				c-1.26,2.3-3.05,4.08-5.37,5.33c-2.31,1.25-4.97,1.88-7.99,1.88H81.95V289.49z M97.52,293.79l6.07-1.66l13.44,25.51h-7.48
				L97.52,293.79z"/>
			<path d="M154.42,265.1h6.29v52.54h-6.29V265.1z M158.1,311.71h30.06v5.93H158.1V311.71z"/>
			<path d="M204.06,265.1h6.29v6.29h-6.29V265.1z M204.06,280.13h6.29v37.51h-6.29V280.13z"/>
			<path d="M234.37,316.42c-1.95-1.19-3.43-2.93-4.44-5.2c-1.01-2.28-1.52-5-1.52-8.18v-8.2c0-3.23,0.49-5.99,1.48-8.27
				c0.99-2.29,2.43-4.03,4.32-5.22c1.89-1.19,4.16-1.79,6.81-1.79c2.55,0,4.83,0.55,6.83,1.66c2,1.11,3.6,2.79,4.81,5.06l-0.76,7.44
				c0-1.61-0.33-3.07-0.99-4.37c-0.66-1.3-1.63-2.33-2.91-3.09c-1.28-0.76-2.79-1.14-4.55-1.14c-2.79,0-4.95,0.86-6.47,2.57
				c-1.52,1.71-2.28,4.12-2.28,7.23v8.13c0,3.06,0.76,5.43,2.28,7.1c1.52,1.67,3.67,2.51,6.47,2.51c1.76,0,3.27-0.39,4.54-1.17
				c1.26-0.78,2.23-1.84,2.91-3.16c0.67-1.32,1.01-2.81,1.01-4.44l0.51,7.88c-0.84,2.07-2.2,3.67-4.06,4.79
				c-1.87,1.12-4.19,1.68-6.96,1.68C238.65,318.21,236.32,317.62,234.37,316.42z M234.47,331.31c-2.22-1.05-3.94-2.52-5.17-4.43
				l4.26-3.83c1.04,1.4,2.29,2.47,3.76,3.23c1.47,0.76,3.01,1.14,4.63,1.14c3.16,0,5.6-0.87,7.33-2.62c1.73-1.75,2.6-4.21,2.6-7.39
				v-37.29h6.29v36.39c0,3.44-0.63,6.4-1.9,8.85c-1.27,2.46-3.1,4.32-5.51,5.6c-2.41,1.28-5.31,1.92-8.71,1.92
				C239.22,332.88,236.69,332.36,234.47,331.31z"/>
			<path d="M278.5,315.21c-2.35-1.97-3.52-4.85-3.52-8.64c0-3.61,1.08-6.37,3.23-8.27c2.16-1.9,5.29-2.85,9.41-2.85h11.56l0.51,5.38
				h-12.03c-2.17,0-3.82,0.49-4.95,1.46c-1.13,0.97-1.7,2.4-1.7,4.28c0,2.02,0.73,3.55,2.19,4.59c1.46,1.04,3.58,1.55,6.38,1.55
				c3.04,0,5.34-0.31,6.92-0.94c1.58-0.63,2.37-1.55,2.37-2.78l0.76,5.09c-0.7,0.89-1.58,1.64-2.64,2.26
				c-1.06,0.62-2.28,1.07-3.65,1.37c-1.37,0.3-2.89,0.45-4.55,0.45C284.27,318.18,280.84,317.19,278.5,315.21z M298.86,293.86
				c0-2.75-0.74-4.88-2.2-6.4c-1.47-1.52-3.55-2.28-6.25-2.28c-1.64,0-3.25,0.26-4.82,0.78c-1.58,0.52-2.97,1.25-4.17,2.19
				l-4.59-3.14c1.42-1.71,3.29-3.04,5.62-3.99c2.33-0.95,4.91-1.43,7.75-1.43c3.11,0,5.77,0.55,7.99,1.64
				c2.22,1.1,3.9,2.69,5.06,4.77c1.16,2.08,1.73,4.6,1.73,7.53v24.1h-6.11V293.86z"/>
		</g>
	</g>
	<g>
		<g>
			<path d="M159.36,216.89h-6.37v-46.95l-8.68,5.38v-6.63l7.58-5.05h7.47V216.89z"/>
			<path d="M184.29,216.89h-6.37v-46.95l-8.68,5.38v-6.63l7.58-5.05h7.47V216.89z"/>
		</g>
	</g>
	<line class="st10" x1="22.92" y1="216.5" x2="312.37" y2="216.5"/>
	<g>
		<g>
			<path d="M141.2,214.34h28.56v4.56H141.2V214.34z M153.05,216.82h4.84v37.99h-4.84V216.82z"/>
			<path d="M168.64,214.34h28.56v4.56h-28.56V214.34z M180.5,216.82h4.84v37.99h-4.84V216.82z"/>
		</g>
	</g>
	<g>
		<path class="st11" d="M252.76,122.73c-0.19,0.53-0.36,1.09-0.5,1.66c0,0-9.18,13.89-34.79,16.45
			c-25.61,2.57-35.93-11.99-56.88-12.24c-20.95-0.26-34.22,11.47-62,12.23c-27.77,0.77-38.23-27.51-38.23-27.51
			c-0.36-3.19-0.53-5.33-0.56-5.56c-0.73-5.73-4.18-16.25-4.18-39.94s14.35-38.69,27.56-45.36c13.89-7.01,44.48-8.54,73.94-8.54
			c29.47,0,61.43,2.03,75.9,7.9c14.78,5.98,31.47,18.47,32.49,48.16C266.55,100.55,254.72,117.3,252.76,122.73z"/>
		<path class="st12" d="M252.26,122.6c-1.81,7.21,0.18,16.55-6.63,23.56c-7.38,7.63-21.02,8.67-37.76,6.24
			c-19.68-2.84-27.22-14.14-32.96-17.2c-4.14-2.21-9.07-3-15.44-3c-6.37,0-13.1,1.93-17.05,5.54c-5.98,5.48-11.92,11.24-31.56,14.3
			c-19.65,3.06-33.22,1.05-41.57-7.41c-5.26-5.33-7.89-23.75-8.94-33.12c0,0,10.46,28.27,38.23,27.51
			c27.78-0.76,41.06-12.49,62-12.23c20.95,0.25,31.26,14.81,56.88,12.24C243.08,136.49,252.26,122.6,252.26,122.6z"/>
		<path class="st13" d="M56.69,88.89c0,0,10.68,26.13,26.93,30.53c5.82,1.58,11.23,3.74,57.62,3.85c9.61,0.02,11.57-0.02,19.35-0.02
			c60.82,0,68.1,2.41,79.37-4.59c14.14-8.79,24-26.74,24-26.74s4.41-19.73,1.61-30.73s-10.85-31.44-29.67-37.44
			S194,13.27,160.78,13.93s-62.26,0.99-75.4,7.52C71.23,28.48,62.6,37.46,57.43,49.78S56.69,88.89,56.69,88.89z"/>
		<path class="st14" d="M141.09,123.27l1.72,5.63c0,0-21.58,10.6-32.21,11.91c-14.2,1.75-34.52-0.1-44.2-15.79
			c-8.82-14.31-9.38-32.12-9.38-32.12s7.32,10.7,13.77,16.96c7.52,7.3,13.85,11.58,27.65,12.15c15.54,0.65,25.55,1.12,29.67,1.17
			C134.28,123.23,141.09,123.27,141.09,123.27z"/>
		<path class="st15" d="M252.76,122.73c-0.19,0.53-0.36,1.09-0.5,1.66c0,0-9.18,13.89-34.79,16.45
			c-25.61,2.57-35.93-11.99-56.88-12.24c-20.95-0.26-34.22,11.47-62,12.23c-27.77,0.77-38.23-27.51-38.23-27.51
			c-0.36-3.19-0.53-5.33-0.56-5.56c-0.73-5.73-4.18-16.25-4.18-39.94s14.35-38.69,27.56-45.36c13.89-7.01,44.48-8.54,73.94-8.54
			c29.47,0,61.43,2.03,75.9,7.9c14.78,5.98,31.47,18.47,32.49,48.16C266.55,100.55,254.72,117.3,252.76,122.73z"/>
		<path class="st11" d="M141.09,123.27l-74.16-87.8c-4.77,4.97-9.15,9.48-11.12,20.15c-2.47,13.31-0.88,31.27,2.15,38.6
			c5.16,12.51,20.98,23.64,28.71,25.94C101.57,124.58,141.09,123.27,141.09,123.27"/>
		<circle class="st12" cx="99.67" cy="113.49" r="4.59"/>
		<circle class="st12" cx="223.75" cy="113.49" r="4.59"/>
	</g>
	<g>
		<g>
			<path class="st16" d="M164.61,129.14c-27.89-33.28-26.96-80.11,2.16-104.51c29.12-24.4,75.42-17.11,103.31,16.17
				c15.09,18,21.58,39.8,20.1,60.27l-69.71,58.42C200.06,157.38,179.7,147.14,164.61,129.14z"/>
			<path class="st17" d="M290.18,101.07c-1.72,16.83-8.86,33.07-22.23,44.28c-13.37,11.2-30.61,15.4-47.48,14.15L290.18,101.07z"/>
			<polygon class="st18" points="297.31,195.11 312.37,182.49 271.96,134.27 264.9,132.52 255.86,140.1 256.89,146.89 			"/>
			<path class="st19" d="M166.99,24.33l86.09,102.71l37.33-31.29c-0.26,1.5-0.54,3.02-0.23,5.32l-34.58,28.98l49.24,58.75
				l-7.53,6.31l-37.37-44.58c-11.97,7.13-25.7,9.84-39.57,8.57c-20.21-1.86-40.59-12.27-55.67-30.27
				C136.81,95.55,137.62,48.95,166.99,24.33z"/>
		</g>
	</g>
</g>
</svg>
